<svg width="26" height="30" viewBox="0 0 26 30" fill="none" xmlns="http://www.w3.org/2000/svg">
<path d="M3.78165 23.9145H26V0.143066H3.72033C1.66854 0.149876 0.00674528 1.82749 0 3.89883V25.7871H0.000613208C0.000613208 25.7964 0 25.8057 0 25.815C0 28.0064 1.70349 29.8574 3.72033 29.8574H26V27.8764H3.72033C2.80052 27.8764 1.96226 26.894 1.96226 25.815C1.96226 24.7849 2.79561 23.9145 3.78165 23.9145ZM5.88679 2.14445H11.7736V12.8428L8.80566 10.2125L5.88679 12.8274V2.14445ZM1.96226 3.9143C1.9592 2.93002 2.74533 2.12959 3.72033 2.12402H3.92453H5.88679H3.92453V15.4954H5.86472L8.81302 12.8546L11.792 15.4954H13.7358V2.12402H24.0377V21.9335H5.8917H3.92943H3.78165C3.1433 21.9335 2.5166 22.1019 1.96288 22.4214V3.9143H1.96226Z" fill="#FFCA42"/>
</svg>
